<svg width="40" height="40" viewBox="0 0 40 40" fill="none" xmlns="http://www.w3.org/2000/svg">
<g clip-path="url(#clip0_1562_3582)">
<path d="M0.00911325 22.4496C0.0620385 21.5119 -0.0863832 20.3613 0.0873498 19.22C0.42331 17.0075 2.38845 15.2529 4.63662 15.2092C6.50051 15.1724 8.36671 15.1816 10.2306 15.2092C10.9071 15.2268 11.5681 15.0047 12.0968 14.5821C13.4947 13.5098 14.9191 12.4709 16.3193 11.3986C16.5004 11.2573 16.7095 11.1564 16.9328 11.1027C17.156 11.0489 17.3882 11.0435 17.6137 11.0867C17.8442 11.1145 18.0601 11.2139 18.2311 11.371C18.402 11.5281 18.5193 11.735 18.5663 11.9623C18.6906 12.4582 18.5122 12.8655 18.1142 13.175C16.6568 14.3117 15.1967 15.4462 13.734 16.5783C13.2517 16.9435 12.6804 17.1731 12.0795 17.2433C11.8801 17.2643 11.6794 17.2719 11.4789 17.2664C9.84286 17.2664 8.20793 17.2756 6.573 17.2594C6.2681 17.2594 6.19792 17.3342 6.20022 17.6345C6.21403 19.9164 6.21403 22.1976 6.20022 24.478C6.20022 24.7817 6.27386 24.86 6.5753 24.8508C7.34962 24.8278 8.12394 24.8381 8.89941 24.8439C10.1328 24.8542 11.0199 25.7275 11.0256 26.9551C11.0333 28.9778 11.0333 31.0005 11.0256 33.0231C11.0256 33.863 10.4377 34.4786 9.65877 34.4843C8.85339 34.4843 8.27811 33.8734 8.27811 33.0013C8.27811 31.7103 8.27811 30.4194 8.27811 29.1285C8.27811 28.1575 7.72584 27.6006 6.76514 27.5983C5.25907 27.5983 3.753 27.5983 2.24693 27.5983C0.875478 27.5983 0.0194679 26.7411 0.0160163 25.3743C0.00796242 24.4642 0.00911325 23.5599 0.00911325 22.4496Z" fill="#0894C6"/>
<path d="M5.51845 13.817C4.6064 13.8143 3.7325 13.4507 3.08769 12.8057C2.44288 12.1606 2.07958 11.2866 2.07715 10.3746C2.07958 9.46233 2.44305 8.58814 3.08811 7.94309C3.73316 7.29803 4.60735 6.93456 5.5196 6.93213C6.43184 6.93486 7.30591 7.29863 7.95075 7.9439C8.59559 8.58917 8.95876 9.46348 8.96089 10.3757C8.95815 11.2878 8.59455 12.1617 7.94953 12.8065C7.3045 13.4513 6.43049 13.8146 5.51845 13.817Z" fill="#0894C6"/>
<path d="M0.00878906 28.2666C0.690242 28.7765 1.53214 29.0247 2.38122 28.9661C2.65965 28.9489 2.77356 28.9949 2.77241 29.3205C2.7586 32.3879 2.7655 35.4541 2.76205 38.5249C2.76205 39.3659 2.18678 39.9826 1.40556 39.993C0.608227 40.0033 0.0110913 39.3809 0.00994074 38.5203C0.00994074 35.1952 0.00994074 31.8705 0.00994074 28.5462L0.00878906 28.2666Z" fill="#0894C6"/>
<path d="M39.9508 14.4752C39.9508 14.3267 39.9922 14.1691 39.9151 14.0276C39.6298 14.0276 39.4549 14.1346 39.4066 14.4349C39.3569 14.6434 39.2848 14.846 39.1914 15.0389C38.997 15.5095 38.6161 15.9927 38.6507 16.4426C38.6852 16.8925 39.135 17.3274 39.4158 17.76C39.5159 17.9153 39.5239 18.0131 39.379 18.1569C38.256 19.266 37.14 20.3817 36.0309 21.5039C35.8928 21.6442 35.8007 21.6557 35.6362 21.5487C35.2669 21.3025 34.8745 21.0885 34.5098 20.8377C34.4391 20.7812 34.3518 20.7492 34.2613 20.7468C34.1708 20.7443 34.0819 20.7713 34.0082 20.8239C33.4441 21.135 32.8471 21.3823 32.2283 21.5614C32.145 21.5765 32.0689 21.6184 32.0116 21.6807C31.9543 21.743 31.9189 21.8223 31.9107 21.9065C31.8221 22.3403 31.6921 22.766 31.6127 23.2021C31.5713 23.4322 31.4712 23.4701 31.2676 23.469C29.7036 23.4621 28.14 23.4621 26.5768 23.469C26.3881 23.469 26.2949 23.4253 26.2592 23.2216C26.2052 22.9052 26.112 22.5957 26.0291 22.2529C25.8404 22.3806 25.6978 22.4749 25.5574 22.5727C21.5374 25.3709 17.5335 28.1943 13.4766 30.9464C12.6712 31.4952 12.2927 32.0371 12.3744 33.0381C12.4699 34.1956 11.8728 35.0861 10.8189 35.5877C9.76496 36.0894 8.77779 35.9329 7.88497 35.2115C7.68247 35.0481 7.57087 35.0688 7.38103 35.2034C6.40229 35.9022 5.41627 36.5925 4.42296 37.2744C4.32565 37.3288 4.24623 37.4103 4.19435 37.5089C4.14247 37.6076 4.12036 37.7192 4.13072 37.8302C4.16294 38.5596 4.1779 39.2913 3.74414 39.9989H4.27109C16.0067 39.9989 27.7396 40.0016 39.4698 40.007C39.8495 40.007 39.9588 39.9288 39.9577 39.5295C39.9485 31.1758 39.9462 22.8243 39.9508 14.4752ZM6.21667 38.6137C5.51944 38.6137 5.51944 38.6137 5.51944 37.89C5.51944 37.2353 5.51943 37.2353 6.19941 37.2353C6.87938 37.2353 6.89664 37.2353 6.89664 37.9153C6.89664 38.6137 6.89664 38.6137 6.21667 38.6137ZM8.92276 38.6137C8.27385 38.6137 8.27385 38.6137 8.27385 37.9705C8.27385 37.2353 8.27385 37.2353 9.00215 37.2353C9.65106 37.2353 9.65106 37.2353 9.65106 37.8773C9.65106 38.6137 9.65105 38.6137 8.92276 38.6137ZM11.7105 38.6137C11.0283 38.6137 11.0283 38.6137 11.0283 37.9233C11.0283 37.233 11.0283 37.2411 11.7186 37.2411C12.4089 37.2411 12.4009 37.2411 12.4009 37.9314C12.4009 38.6217 12.4055 38.6137 11.7105 38.6137ZM14.5869 33.5513C14.5501 33.5708 14.5156 33.595 14.4914 33.6099C14.4028 33.6375 14.3764 33.5731 14.3453 33.5329C14.3142 33.4926 14.2602 33.4178 14.2199 33.3603C13.579 32.4536 13.5986 32.3938 14.6065 31.8576C14.7411 31.7875 14.8078 31.7909 14.8803 31.9129C14.9022 31.9485 14.9286 31.9831 14.9539 32.0176C15.619 32.9369 15.5959 33.0335 14.5881 33.557L14.5869 33.5513ZM26.0061 25.6021C24.1169 26.9222 22.2269 28.2399 20.3362 29.5554C19.2904 30.2825 18.2376 31.0005 17.201 31.7414C16.9904 31.891 16.8823 31.9129 16.7407 31.6701C16.5728 31.3733 16.2 31.0822 16.2253 30.8175C16.2506 30.5529 16.7189 30.3941 16.9985 30.1997C19.7207 28.299 22.4486 26.4029 25.1674 24.501C25.4331 24.3147 25.5816 24.2916 25.7495 24.6C25.9058 24.8578 26.0763 25.1068 26.2604 25.3455C26.2466 25.5055 26.1039 25.54 26.0073 25.6079L26.0061 25.6021ZM37.9005 38.6033C37.1964 38.6033 37.1964 38.6033 37.1964 37.8854C37.1964 37.225 37.1964 37.225 37.8706 37.225C38.5747 37.225 38.5747 37.225 38.5747 37.9429C38.5759 38.6137 38.5759 38.6137 37.8982 38.6137L37.9005 38.6033ZM37.935 35.842C37.1964 35.842 37.1964 35.842 37.1964 35.1172C37.1964 34.4648 37.1964 34.4648 37.8361 34.4648C38.5747 34.4648 38.5747 34.4648 38.5747 35.1896C38.5759 35.8581 38.5759 35.8581 37.9362 35.8581L37.935 35.842ZM37.8602 33.0876C37.1964 33.0876 37.1964 33.0876 37.1964 32.4157C37.1964 31.7092 37.1964 31.7092 37.9109 31.7092C38.5747 31.7092 38.5747 31.7092 38.5747 32.3812C38.5759 33.1037 38.5759 33.1037 37.8614 33.1037L37.8602 33.0876Z" fill="#0894C6"/>
<path d="M39.9527 10.2112C39.9527 9.54962 39.9527 9.54963 39.3222 9.3989C39.1128 9.34828 38.9057 9.28385 38.6951 9.25278C38.5962 9.24612 38.5029 9.2045 38.4319 9.13537C38.3609 9.06623 38.3167 8.97408 38.3074 8.8754C38.153 8.16158 37.9074 7.47057 37.5768 6.81937C37.3835 6.43854 37.013 6.05771 37.0257 5.68723C37.0384 5.31675 37.41 4.94167 37.6562 4.59075C37.7977 4.38826 37.7471 4.2778 37.5906 4.13053C37.2259 3.78537 36.8796 3.4218 36.5218 3.06973C36.2364 2.78785 35.9798 2.34719 35.6496 2.28046C35.3194 2.21372 34.9593 2.61526 34.6326 2.83962C34.361 3.02716 34.1723 2.99839 33.9123 2.8281C33.3581 2.47149 32.7608 2.18693 32.1347 1.9813C31.7148 1.83863 31.1844 1.84094 30.8875 1.57287C30.5734 1.28868 30.6252 0.722612 30.5136 0.280801C30.463 0.0794546 30.3813 0.0380259 30.1983 0.0414775C29.6955 0.0518325 29.1939 0.0414775 28.6911 0.0414775C28.2769 0.0414775 27.758 -0.0954356 27.475 0.101308C27.1712 0.313009 27.2184 0.877926 27.1298 1.29212C27.0757 1.53949 26.9595 1.63729 26.7133 1.69251C26.0278 1.84343 25.3638 2.0792 24.7367 2.39436C24.3409 2.59225 23.9497 2.97999 23.5666 2.96963C23.1834 2.95928 22.8015 2.56464 22.4333 2.31842C22.2653 2.20336 22.1709 2.23327 22.0386 2.37019C21.5186 2.90519 21.0089 3.45286 20.452 3.94645C20.1172 4.24214 20.0689 4.4711 20.3519 4.81971C20.5545 5.10074 20.7397 5.39391 20.9065 5.69758C20.8513 5.79998 20.803 5.90353 20.7431 6.00018C20.345 6.64909 19.9377 7.31641 19.81 8.06081C19.6524 8.97205 19.1968 9.42076 18.2855 9.46218C18.1705 9.46218 17.9461 9.43456 17.9335 9.61865C17.9162 9.84876 18.1636 9.78434 18.2913 9.83036C19.5569 10.3009 20.3128 11.6563 19.856 12.9069C19.6455 13.4822 19.7214 13.9424 19.9285 14.4521C20.0436 14.742 20.1218 15.0746 20.314 15.3093C20.964 16.1043 20.8731 16.8326 20.2104 17.5505C20.0597 17.7139 20.1115 17.8347 20.261 17.9762C20.6269 18.3214 20.9721 18.685 21.3299 19.037C21.6256 19.327 21.9052 19.8022 22.2354 19.8424C22.5656 19.8827 22.9487 19.4973 23.287 19.258C23.5171 19.1026 23.6782 19.1222 23.8979 19.258C24.7705 19.81 25.7319 20.2071 26.7398 20.4315C26.9699 20.4844 27.0849 20.5845 27.1241 20.8112C27.1931 21.1564 27.3001 21.5015 27.3622 21.857C27.3956 22.0411 27.4773 22.0872 27.6453 22.0814C28.5059 22.073 29.3665 22.073 30.2271 22.0814C30.3974 22.0814 30.4768 22.0411 30.509 21.857C30.5711 21.505 30.6804 21.1667 30.7471 20.8112C30.7909 20.5811 30.9002 20.4821 31.1326 20.4315C31.8482 20.2773 32.5915 20.1059 33.1748 19.6814C33.9998 19.0796 34.6993 19.1061 35.4195 19.7803C35.576 19.9241 35.698 19.8954 35.8464 19.74C36.4263 19.1418 37.0146 18.5534 37.6113 17.9751C37.7597 17.8301 37.7908 17.7243 37.6654 17.5459C37.4675 17.2652 37.3122 16.9557 37.1143 16.6761C37.0508 16.6014 37.016 16.5066 37.016 16.4086C37.016 16.3106 37.0508 16.2158 37.1143 16.1411C37.5032 15.5382 37.8967 14.9043 38.0186 14.2082C38.1935 13.2141 38.6595 12.663 39.6881 12.6434C39.94 12.6434 39.9665 12.4847 39.9619 12.2718C39.9446 11.5884 39.9527 10.9004 39.9527 10.2112ZM28.9074 19.3281C26.7186 19.3157 24.6236 18.4374 23.0802 16.8852C21.5369 15.333 20.6706 13.2331 20.6706 11.0442C20.6773 8.85536 21.551 6.75837 23.1003 5.21225C24.6497 3.66613 26.7485 2.79687 28.9373 2.79475C30.0248 2.79686 31.1012 3.01328 32.105 3.43164C33.1088 3.85 34.0203 4.4621 34.7874 5.23294C35.5545 6.00378 36.1622 6.91824 36.5756 7.92406C36.9891 8.92988 37.2003 10.0073 37.1971 11.0948C37.1837 13.2841 36.3043 15.379 34.7509 16.9218C33.1976 18.4646 31.0967 19.3297 28.9074 19.3281Z" fill="#0894C6"/>
<path d="M28.9397 4.17651C27.1197 4.17738 25.3739 4.89777 24.0828 6.18059C22.7918 7.46342 22.0603 9.20464 22.0479 11.0246C22.0418 12.8517 22.7602 14.6067 24.0458 15.905C25.3314 17.2033 27.0792 17.939 28.9063 17.9509C30.7334 17.9536 32.4871 17.232 33.783 15.944C35.0789 14.6561 35.8114 12.9069 35.82 11.0798C35.8218 9.25236 35.0982 7.49889 33.8082 6.20454C32.5182 4.91018 30.7671 4.18078 28.9397 4.17651ZM28.9236 15.1953C27.8286 15.1899 26.7804 14.751 26.0081 13.9749C25.2358 13.1987 24.8023 12.1483 24.8023 11.0533C24.8075 9.95822 25.2461 8.90971 26.0224 8.13716C26.7986 7.36461 27.8491 6.93091 28.9443 6.93092C30.0392 6.9364 31.0874 7.37521 31.8597 8.15139C32.632 8.92757 33.0656 9.97796 33.0656 11.0729C33.0604 12.168 32.6217 13.2165 31.8455 13.9891C31.0693 14.7616 30.0187 15.1953 28.9236 15.1953Z" fill="#0894C6"/>
<path d="M31.6853 11.0705C31.6814 11.802 31.3873 12.5021 30.8676 13.017C30.3479 13.5319 29.6452 13.8196 28.9136 13.8168C28.1823 13.8098 27.4836 13.513 26.9709 12.9914C26.4581 12.4698 26.1733 11.7662 26.1788 11.0348C26.1884 10.3109 26.482 9.61963 26.9964 9.11004C27.5107 8.60045 28.2046 8.31326 28.9286 8.3103C29.291 8.31 29.6499 8.38122 29.9847 8.51987C30.3195 8.65851 30.6237 8.86186 30.8798 9.11827C31.1359 9.37468 31.3389 9.67911 31.4771 10.0141C31.6153 10.3491 31.6861 10.7081 31.6853 11.0705Z" fill="#0894C6"/>
</g>
<defs>
<clipPath id="clip0_1562_3582">
<rect width="39.962" height="40" fill="white"/>
</clipPath>
</defs>
</svg>
